<svg width="263" height="241" viewBox="0 0 263 241" fill="none" xmlns="http://www.w3.org/2000/svg">
<path d="M262.56 120.43H211.13L114.13 0H161.49C164.06 0 166.5 1.16998 168.11 3.16998L262.56 120.43Z" fill="url(#paint0_linear_122_42)"/>
<path d="M262.55 120.43H211.13L114.13 240.87H161.48C164.05 240.87 166.49 239.7 168.1 237.7L262.55 120.43Z" fill="url(#paint1_linear_122_42)"/>
<path d="M182.88 120.43H131.45L82.9502 60.22H130.31C132.88 60.22 135.32 61.39 136.93 63.39L182.88 120.43Z" fill="url(#paint2_linear_122_42)"/>
<path d="M182.88 120.43H131.45L82.9502 60.22H130.31C132.88 60.22 135.32 61.39 136.93 63.39L182.88 120.43Z" fill="url(#paint3_linear_122_42)"/>
<path d="M182.88 120.43H131.45L82.9502 180.65H130.31C132.88 180.65 135.32 179.48 136.93 177.48L182.88 120.43Z" fill="url(#paint4_linear_122_42)"/>
<path d="M93.82 110.51H56.51C51.82 110.51 48.01 114.32 48.01 119.01V121.85C48.01 126.54 51.82 130.35 56.51 130.35H93.82C98.51 130.35 102.32 126.54 102.32 121.85V119.01C102.32 114.32 98.51 110.51 93.82 110.51Z" fill="#FF9400"/>
<path d="M9.92001 130.35C15.4 130.35 19.84 125.91 19.84 120.43C19.84 114.95 15.4 110.51 9.92001 110.51C4.44001 110.51 0 114.95 0 120.43C0 125.91 4.44001 130.35 9.92001 130.35Z" fill="#FF9400"/>
<defs>
<linearGradient id="paint0_linear_122_42" x1="188.345" y1="0" x2="188.345" y2="120.43" gradientUnits="userSpaceOnUse">
<stop stop-color="#FFA502"/>
<stop offset="1" stop-color="#FB3200"/>
</linearGradient>
<linearGradient id="paint1_linear_122_42" x1="188.34" y1="120.43" x2="188.34" y2="240.87" gradientUnits="userSpaceOnUse">
<stop stop-color="#008AA9"/>
<stop offset="1" stop-color="#00BFC1"/>
</linearGradient>
<linearGradient id="paint2_linear_122_42" x1="132.915" y1="60.22" x2="132.915" y2="120.43" gradientUnits="userSpaceOnUse">
<stop stop-color="#00BFC1"/>
<stop offset="1" stop-color="#005A5B"/>
</linearGradient>
<linearGradient id="paint3_linear_122_42" x1="132.915" y1="60.22" x2="132.915" y2="120.43" gradientUnits="userSpaceOnUse">
<stop stop-color="#00BFC1"/>
<stop offset="1" stop-color="#008AA9"/>
</linearGradient>
<linearGradient id="paint4_linear_122_42" x1="132.915" y1="120.43" x2="132.915" y2="180.65" gradientUnits="userSpaceOnUse">
<stop stop-color="#FB3200"/>
<stop offset="1" stop-color="#FFA502"/>
</linearGradient>
</defs>
</svg>
